<?xml version="1.0" encoding="utf-8"?>
<!-- Generator: Adobe Illustrator 13.0.0, SVG Export Plug-In  -->
<!DOCTYPE svg PUBLIC "-//W3C//DTD SVG 1.1//EN" "http://www.w3.org/Graphics/SVG/1.1/DTD/svg11.dtd" [
	<!ENTITY ns_flows "http://ns.adobe.com/Flows/1.0/">
]>
<svg version="1.1"
	 xmlns="http://www.w3.org/2000/svg" xmlns:xlink="http://www.w3.org/1999/xlink" xmlns:a="http://ns.adobe.com/AdobeSVGViewerExtensions/3.0/"
	 x="0px" y="0px" width="551px" height="551px" viewBox="-0.299 -1.301 551 551" enable-background="new -0.299 -1.301 551 551"
	 xml:space="preserve">
<defs>
</defs>
<path fill="#FFFFFF" d="M394.128,217.26c3.06-66.096-50.184-119.34-118.729-119.34c-68.544,0-121.788,53.244-118.728,119.34
	c2.448,66.097,55.691,119.341,118.728,119.341S391.68,283.356,394.128,217.26z M454.104,451.656v-10.404
	c0-47.124-37.943-85.067-85.067-85.067h-186.66c-47.124,0-85.068,37.943-85.068,85.067v10.404
	c45.288,45.899,108.324,74.664,178.092,74.664C345.168,526.32,408.204,497.556,454.104,451.656z M275.399,526.32
	c-138.312,0-250.92-112.608-250.92-250.92c0-138.313,112.608-250.92,250.92-250.92c138.313,0,250.921,112.607,250.921,250.92
	C526.32,413.712,413.712,526.32,275.399,526.32z M275.399,550.8c152.389,0,275.4-123.012,275.4-275.399
	C550.8,123.012,427.788,0,275.399,0C123.012,0,0,123.012,0,275.4C0,427.788,123.012,550.8,275.399,550.8z"/>
</svg>
