<?xml version="1.0" encoding="utf-8"?>
<!-- Generator: Adobe Illustrator 16.0.0, SVG Export Plug-In . SVG Version: 6.00 Build 0)  -->
<!DOCTYPE svg PUBLIC "-//W3C//DTD SVG 1.1//EN" "http://www.w3.org/Graphics/SVG/1.1/DTD/svg11.dtd">
<svg version="1.1" id="Layer_1" xmlns="http://www.w3.org/2000/svg" xmlns:xlink="http://www.w3.org/1999/xlink" x="0px" y="0px"
	 width="612.004px" height="610.956px" viewBox="0 14.546 612.004 610.956" enable-background="new 0 14.546 612.004 610.956"
	 xml:space="preserve">
<path d="M607.943,559.661l-191.465-191.47c24.866-37.069,38.226-80.656,38.226-126.292c0-60.729-23.647-117.822-66.592-160.766
	c-42.943-42.938-100.031-66.586-160.76-66.586S109.53,38.194,66.585,81.132C23.648,124.076,0,181.169,0,241.898
	c0,60.729,23.647,117.816,66.592,160.76c42.943,42.944,100.031,66.592,160.766,66.592c46.151,0,90.19-13.672,127.528-39.076
	l191.281,191.269c6.456,6.463,18.329,5.055,26.512-3.127l32.142-32.143C613.003,577.99,614.405,566.117,607.943,559.661z
	 M227.352,407.658c-91.408,0-165.767-74.357-165.767-165.76S135.949,76.132,227.352,76.132s165.76,74.364,165.76,165.767
	S318.754,407.658,227.352,407.658z"/>
</svg>
